<svg id="Layer_1" data-name="Layer 1" xmlns="http://www.w3.org/2000/svg" viewBox="0 0 512.43 513"><defs><style>.cls-1{fill:#95d5d0;stroke:#231f20;stroke-miterlimit:10;}.cls-2{fill:#434346;}.cls-3{fill:#f3f1f1;}</style></defs><title>logo</title><rect class="cls-1" x="0.5" y="0.5" width="511.43" height="512"/><path class="cls-2" d="M370.47,451.64H141.88a75,75,0,0,1-74.81-74.81V264.62a75,75,0,0,1,74.81-74.81H370.47a75,75,0,0,1,74.81,74.81V376.83A75,75,0,0,1,370.47,451.64Z" transform="translate(0.21 0.5)"/><path class="cls-3" d="M141.88,414.24a37.44,37.44,0,0,1-37.4-37.41V264.62a37.45,37.45,0,0,1,37.4-37.41H370.47a37.44,37.44,0,0,1,37.4,37.41V376.83a37.45,37.45,0,0,1-37.4,37.41Z" transform="translate(0.21 0.5)"/><path class="cls-3" d="M67.07,277.66v83a41.52,41.52,0,1,1,0-83Z" transform="translate(0.21 0.5)"/><path class="cls-3" d="M486.8,319.18a41.5,41.5,0,0,1-41.52,41.51v-83A41.5,41.5,0,0,1,486.8,319.18Z" transform="translate(0.21 0.5)"/><path class="cls-3" d="M256.17,148.29a41.51,41.51,0,0,0-41.52,41.52h83A41.52,41.52,0,0,0,256.17,148.29Z" transform="translate(0.21 0.5)"/><circle class="cls-3" cx="256.39" cy="80.08" r="19.22"/><path class="cls-2" d="M180.2,276.82a23.38,23.38,0,1,0,23.38,23.38,23.46,23.46,0,0,0-23.38-23.38Z" transform="translate(0.21 0.5)"/><circle class="cls-2" cx="332.02" cy="300.7" r="23.38"/><path class="cls-2" d="M275.38,350.36A25.53,25.53,0,0,1,256,359.18a24.74,24.74,0,0,1-19.31-8.72,5.44,5.44,0,0,0-8.8,6.4A35.58,35.58,0,0,0,256,370.07,36.62,36.62,0,0,0,284,357a5.44,5.44,0,0,0-8.65-6.6Z" transform="translate(0.21 0.5)"/><path class="cls-2" d="M450.55,272.56v-7.94a80.35,80.35,0,0,0-80.25-80.26H302.62a47,47,0,0,0-41.18-41.18V103.59a24.66,24.66,0,1,0-10.88,0v39.59a47,47,0,0,0-41.18,41.18H141.71a80.35,80.35,0,0,0-80.26,80.26v7.94a46.93,46.93,0,0,0,0,93.24v11a80.35,80.35,0,0,0,80.26,80.26H370.3a80.34,80.34,0,0,0,80.25-80.26v-11a46.93,46.93,0,0,0,0-93.24Zm-208.33-193A13.78,13.78,0,1,1,256,93.36,13.81,13.81,0,0,1,242.22,79.58ZM256,153.73a36.15,36.15,0,0,1,35.67,30.64H220.34A36.13,36.13,0,0,1,256,153.73ZM30.82,319.18a36.14,36.14,0,0,1,30.63-35.67v71.34A36.14,36.14,0,0,1,30.82,319.18Zm408.84,57.65A69.45,69.45,0,0,1,370.3,446.2H141.71a69.44,69.44,0,0,1-69.37-69.37V264.62a69.45,69.45,0,0,1,69.37-69.37H370.3a69.44,69.44,0,0,1,69.36,69.37V376.83Zm10.89-22V283.51a36.08,36.08,0,0,1,0,71.33Z" transform="translate(0.21 0.5)"/></svg>